<?xml version="1.0" standalone="no"?>
<!DOCTYPE svg PUBLIC "-//W3C//DTD SVG 1.1//EN" "http://www.w3.org/Graphics/SVG/1.1/DTD/svg11.dtd">
<svg xmlns="http://www.w3.org/2000/svg">
<metadata>Copyright (C) 2016 by original authors @ fontello.com</metadata>
<defs>
<font id="icons" horiz-adv-x="1000" >
<font-face font-family="icons" font-weight="400" font-stretch="normal" units-per-em="1000" ascent="850" descent="-150" />
<missing-glyph horiz-adv-x="1000" />
<glyph glyph-name="checkbox" unicode="&#xe800;" d="M889 739v-778h-778v778h778m0 111h-778c-61 0-111-50-111-111v-778c0-61 50-111 111-111h778c61 0 111 50 111 111v778c0 61-50 111-111 111l0 0z" horiz-adv-x="1000" />

<glyph glyph-name="checkbox-checked" unicode="&#xe801;" d="M272 456l-78-78 250-250 556 555-78 78-478-478-172 173z m617-495h-778v778h556v111h-556c-61 0-111-50-111-111v-778c0-61 50-111 111-111h778c61 0 111 50 111 111v445h-111v-445z" horiz-adv-x="1000" />

<glyph glyph-name="radio" unicode="&#xe802;" d="M500 850c-275 0-500-225-500-500s225-500 500-500 500 225 500 500-225 500-500 500z m0-900c-220 0-400 180-400 400s180 400 400 400 400-180 400-400-180-400-400-400z" horiz-adv-x="1000" />

<glyph glyph-name="radio-checked" unicode="&#xe803;" d="M500 600c-140 0-250-110-250-250 0-140 110-250 250-250 140 0 250 110 250 250 0 140-110 250-250 250z m0 250c-275 0-500-225-500-500s225-500 500-500 500 225 500 500-225 500-500 500z m0-900c-220 0-400 180-400 400s180 400 400 400 400-180 400-400-180-400-400-400z" horiz-adv-x="1000" />

<glyph glyph-name="info-circled" unicode="&#xe804;" d="M571 82v89q0 8-5 13t-12 5h-54v286q0 8-5 13t-13 5h-178q-8 0-13-5t-5-13v-89q0-8 5-13t13-5h53v-179h-53q-8 0-13-5t-5-13v-89q0-8 5-13t13-5h250q7 0 12 5t5 13z m-71 500v89q0 8-5 13t-13 5h-107q-8 0-13-5t-5-13v-89q0-8 5-13t13-5h107q8 0 13 5t5 13z m357-232q0-117-57-215t-156-156-215-58-216 58-155 156-58 215 58 215 155 156 216 58 215-58 156-156 57-215z" horiz-adv-x="857.1" />

<glyph glyph-name="attention-circled" unicode="&#xe805;" d="M429 779q116 0 215-58t156-156 57-215-57-215-156-156-215-58-216 58-155 156-58 215 58 215 155 156 216 58z m71-696v106q0 8-5 13t-12 5h-107q-8 0-13-5t-6-13v-106q0-8 6-13t13-6h107q7 0 12 6t5 13z m-1 192l10 346q0 7-6 10-5 5-13 5h-123q-8 0-13-5-6-3-6-10l10-346q0-6 5-10t14-4h103q8 0 13 4t6 10z" horiz-adv-x="857.1" />

<glyph glyph-name="attention" unicode="&#xe806;" d="M571 83v106q0 8-5 13t-12 5h-108q-7 0-12-5t-5-13v-106q0-8 5-13t12-6h108q7 0 12 6t5 13z m-1 208l10 257q0 6-5 10-7 6-14 6h-122q-6 0-14-6-5-4-5-12l9-255q0-5 6-9t13-3h103q8 0 14 3t5 9z m-7 522l428-786q20-35-1-70-9-17-26-26t-35-10h-858q-18 0-35 10t-26 26q-21 35-1 70l429 786q9 17 26 27t36 10 36-10 27-27z" horiz-adv-x="1000" />

<glyph glyph-name="cancel-circled" unicode="&#xe807;" d="M641 224q0 14-10 25l-101 101 101 101q10 11 10 25 0 15-10 26l-51 50q-10 11-25 11-15 0-25-11l-101-101-101 101q-11 11-25 11-16 0-26-11l-50-50q-11-11-11-26 0-14 11-25l101-101-101-101q-11-11-11-25 0-15 11-26l50-50q10-11 26-11 14 0 25 11l101 101 101-101q10-11 25-11 15 0 25 11l51 50q10 11 10 26z m216 126q0-117-57-215t-156-156-215-58-216 58-155 156-58 215 58 215 155 156 216 58 215-58 156-156 57-215z" horiz-adv-x="857.1" />

<glyph glyph-name="down-open" unicode="&#xe808;" d="M939 399l-414-413q-10-11-25-11t-25 11l-414 413q-11 11-11 26t11 25l93 92q10 11 25 11t25-11l296-296 296 296q11 11 25 11t26-11l92-92q11-11 11-25t-11-26z" horiz-adv-x="1000" />

<glyph glyph-name="left-open" unicode="&#xe809;" d="M654 682l-297-296 297-297q10-10 10-25t-10-25l-93-93q-11-10-25-10t-25 10l-414 415q-11 10-11 25t11 25l414 414q10 11 25 11t25-11l93-93q10-10 10-25t-10-25z" horiz-adv-x="714.3" />

<glyph glyph-name="right-open" unicode="&#xe80a;" d="M618 361l-414-415q-11-10-25-10t-25 10l-93 93q-11 11-11 25t11 25l296 297-296 296q-11 11-11 25t11 25l93 93q10 11 25 11t25-11l414-414q10-11 10-25t-10-25z" horiz-adv-x="714.3" />

<glyph glyph-name="up-open" unicode="&#xe80b;" d="M939 107l-92-92q-11-10-26-10t-25 10l-296 297-296-297q-11-10-25-10t-25 10l-93 92q-11 11-11 26t11 25l414 414q11 10 25 10t25-10l414-414q11-11 11-25t-11-26z" horiz-adv-x="1000" />

<glyph glyph-name="arr-left" unicode="&#xe80c;" d="M488 600c-110-137-199-249-200-250 0 0 26-33 199-250 110-137 200-250 200-250 0 0 25 20 25 21 0 0-86 108-191 239-105 132-191 240-191 240 0 0 86 108 191 239 105 132 191 240 191 240 0 0-4 4-12 10-6 5-12 10-12 10-1 1-27-32-200-249z" horiz-adv-x="1000" />

<glyph glyph-name="arr-right" unicode="&#xe80d;" d="M300 840c-8-7-12-11-12-11 0 0 86-108 191-239 105-132 191-240 191-240 0 0-86-108-191-239-105-132-191-240-191-240 0 0 4-4 12-10 10-8 13-11 13-10 1 0 398 498 399 499 0 0-76 96-199 250-110 137-200 250-200 250 0 0-6-5-13-10z" horiz-adv-x="1000" />

<glyph glyph-name="arr-top" unicode="&#xe80e;" d="M250 363c-137-110-250-200-250-200 0 0 20-25 21-25 0 0 108 86 239 191 132 105 240 191 240 191 0 0 108-86 239-191 132-105 240-191 240-191 0 0 4 4 10 12 8 10 11 13 10 13 0 1-498 398-499 399 0 0-96-76-250-199z" horiz-adv-x="1000" />

<glyph glyph-name="arr-down" unicode="&#xe80f;" d="M10 550c-5-7-10-13-10-13 0 0 113-90 250-200 154-123 250-199 250-199 1 1 499 399 499 399 1 0-2 3-10 13-6 8-10 12-10 12 0 0-108-86-240-191-131-105-239-191-239-191 0 0-108 86-240 191-131 105-239 191-239 191 0 0-4-4-11-12z" horiz-adv-x="1000" />

<glyph glyph-name="logo" unicode="&#xe810;" d="M779 850c-55-5-116-23-191-56-13-5-65-30-66-31 0-1 3-23 4-23 1 0 6 2 12 3 30 9 48 11 76 12 26 1 41-1 58-7 46-15 74-54 80-113 1-12 1-38 0-51-5-54-25-110-62-172-52-87-120-144-187-158-13-3-38-4-49-2-41 6-71 35-83 81-5 19-7 30-7 50-1 39 6 76 21 116 24 59 64 112 123 159l9 8-5 9c-2 4-4 8-5 8-2 0-41-20-60-31-117-65-192-130-240-209-20-33-36-71-44-101-5-19-6-30-7-49 0-21 1-31 5-47 14-57 51-89 111-98 66-9 149 12 253 65 85 43 180 106 243 161 66 58 116 121 150 190 52 104 52 195-1 246-22 20-50 33-85 38-9 1-44 2-53 2z m1744-238c-40-21-74-38-74-38 0 0 4-3 9-6 50-29 41-53-33-95-19-11-30-17-31-16-1 0-16 79-20 103-7 41-13 61-24 71-4 4-6 5-9 6-9 1-25-5-60-23-25-12-144-73-144-74-1 0 2-14 2-15 1 0 8 2 17 4 14 4 18 5 24 5 8 0 9 0 13-3 17-9 27-34 39-95 5-25 11-62 11-62 0-1-52-28-114-62-112-60-132-72-147-81-33-22-39-37-21-54 7-7 18-13 33-20 11-4 34-12 44-14l4-1 76 42c42 23 76 42 76 43 1 0-2 1-5 2-17 4-35 12-42 18-9 8-10 20 0 32 7 8 30 25 58 42 16 9 43 24 43 24 0 0 6-33 13-73 13-74 17-92 21-101 9-18 22-21 51-10 12 4 27 12 47 22 9 5 38 20 63 33l46 24 0 12c-1 7-1 13-1 13 0 0-5-2-11-4-20-5-29-6-36-2-4 1-9 7-11 10-2 5-6 18-9 30-3 16-22 123-22 126 0 1 27 16 110 63 61 33 115 64 122 68 15 8 25 18 27 25 6 19-11 40-50 62-6 3-11 6-11 6 0 0-33-17-74-37z m-1051 31c-15-3-42-14-68-29-52-30-142-91-265-181-15-11-28-21-29-21-1-1-2-2 12 29 48 106 68 173 58 193-5 11-14 11-40 1-27-10-101-46-165-80-15-8-32-17-38-20l-11-5 0-11 0-11 4 1c20 9 30 12 40 13 8 0 11-1 14-6 6-13-2-48-25-104-21-53-48-110-107-227l-19-38 15 0 16 0 26 25c95 97 182 173 258 226 59 41 102 62 130 63 10 1 13 0 16-4 16-23-9-107-77-263-17-40-20-45-19-46 0 0 40 19 88 43 82 40 88 43 89 46 1 1 9 21 18 43 71 167 105 271 108 325 1 23-4 35-15 38-5 2-6 2-14 0z m272 0c-15-3-16-3-148-66l-68-33 1-11c0-6 1-11 1-11 0 0 3 1 7 3 9 4 21 8 27 9 12 1 15-4 16-21 0-22-7-57-23-113-7-25-20-68-24-77-5-15-20-63-25-80-5-23-8-37-9-52 0-18 2-29 9-36 5-4 10-6 17-5 21 2 70 30 147 86 35 26 52 39 140 108 18 14 33 26 33 26 2 0-58-118-76-150-12-22-27-42-48-66-37-42-104-67-207-75-48-4-121-3-193 2-66 4-132 10-277 26-121 13-173 18-233 23-151 13-273 15-372 6-176-16-297-69-366-160-10-14-30-44-38-58-9-15-34-66-34-67 1 0 1 0 1 1 0 1 24 24 37 34 97 77 235 120 428 133 72 5 167 5 257 1 95-4 166-9 369-28 172-15 218-19 308-23 30-2 140-2 162 0 35 2 57 4 82 9 41 7 71 15 99 29 30 15 49 31 66 55 34 47 74 113 107 175 22 40 99 190 132 257 13 27 28 57 33 68 5 10 16 31 23 45 8 14 14 26 14 26 0 1-9 1-19 1l-19 0-15-15c-21-22-73-72-100-98-62-56-113-100-163-136-47-34-79-52-98-54-5-1-5 0-8 2-4 3-5 7-5 18 0 24 13 71 39 145 4 11 9 23 10 27 2 4 6 16 10 27 15 40 20 64 18 78-3 14-10 18-25 15z" horiz-adv-x="2660" />

<glyph glyph-name="thin-plus" unicode="&#xe811;" d="M484 850c-90-4-176-31-252-79-67-42-123-101-164-170-54-92-77-202-65-309 8-64 27-125 58-180 46-84 114-153 198-199 63-35 133-56 205-62 28-2 59-1 87 1 64 6 126 24 183 53 85 44 156 111 205 194 10 18 21 40 30 61 20 47 32 99 36 151 1 14 2 21 2 39 0 18-1 25-2 39-6 79-31 156-73 223-49 79-119 143-203 185-60 30-125 48-193 52-16 1-37 1-52 1z m48-7c20-2 37-4 54-6 136-23 256-101 333-216 46-71 74-152 80-236 3-49-1-98-11-145-25-108-86-205-173-274-57-46-122-78-192-95-32-8-64-12-98-14-17-1-40 0-58 1-138 10-265 76-352 184-50 62-84 135-99 213-4 22-7 42-9 69 0 9 0 43 0 52 2 27 5 47 9 70 22 111 83 212 172 285 67 55 147 91 233 106 21 3 38 5 64 6 5 0 42 0 47 0z m-35-355l0-138-140 0-139 0 0-3 0-4 139 0 140 0 0-135 0-135 3 0 3 0 0 135 0 135 136 0 136 1 0 3 1 3-137 0-136 0 0 138 0 139-3 0-3 0 0-139z" horiz-adv-x="1007" />

<glyph glyph-name="thin-minus" unicode="&#xe812;" d="M484 850c-90-4-176-31-252-79-67-42-123-101-164-170-54-92-77-202-65-309 8-64 27-125 58-180 46-84 114-153 198-199 63-35 133-56 205-62 28-2 59-1 87 1 64 6 126 24 183 53 85 44 156 111 205 194 10 18 21 40 30 61 20 47 32 99 36 151 1 14 2 21 2 39 0 18-1 25-2 39-6 79-31 156-73 223-49 79-119 143-203 185-60 30-125 48-193 52-16 1-37 1-52 1z m48-7c20-2 37-4 54-6 136-23 256-101 333-216 46-71 74-152 80-236 3-49-1-98-11-145-25-108-86-205-173-274-57-46-122-78-192-95-32-8-64-12-98-14-17-1-40 0-58 1-138 10-265 76-352 184-50 62-84 135-99 213-4 22-7 42-9 69 0 9 0 43 0 52 2 27 5 47 9 70 22 111 83 212 172 285 67 55 147 91 233 106 21 3 38 5 64 6 5 0 42 0 47 0z m-314-496l0-4 279 0 278 1 0 3 1 3-279 0-279 0 0-3z" horiz-adv-x="1007" />

<glyph glyph-name="thin-rule" unicode="&#xe813;" d="M286 846c-55-29-101-64-143-108-26-28-49-59-68-91-14-22-26-47-36-71-11-26-20-57-27-85-6-28-9-54-11-86-1-10-1-45 0-55 1-22 3-40 6-59 22-131 93-249 199-331 39-29 82-54 126-72 51-20 103-32 158-36 15-2 22-2 42-2 22 0 34 1 53 3 105 10 205 52 286 119 107 88 175 213 189 349 2 18 3 31 3 50 1 65-10 130-33 191-11 29-25 58-41 85-30 49-68 94-112 131-32 28-66 50-108 71l-1 1-1-3-2-3 6-3c3-2 10-5 14-7 55-31 105-71 147-120 63-74 105-166 119-262 2-15 3-29 4-46 1-10 1-47 0-56-3-49-10-91-25-135-44-135-144-247-274-308-59-28-122-44-186-49-25-1-53-1-77 0-46 4-93 13-136 29-93 32-175 90-236 167-65 80-103 177-112 280-1 16-2 23-2 44 0 21 1 27 2 43 9 114 56 220 133 305 7 8 23 24 31 31 36 33 75 61 116 82 5 3 9 5 9 5 0 0-3 6-3 6 0 0-4-2-9-4z m-28-479l0-94 267 0 266 0 0 94 0 94-266 0-267 0 0-94z m526 0l0-87-46 0-45 0 0 45 0 46-4 0-3 0 0-46 0-45-21 0-21 0 0 32 0 31-4 0-3 0 0-31 0-32-25 0-24 0 0 32 0 31-4 0-3 0 0-31-1-32-24 0-24 0 0 45 0 46-4 0-3 0 0-46 0-45-25 0-24 0 0 32-1 31-3 0-3 0 0-31 0-32-25 0-24 0 0 32-1 31-3 0-3 0 0-31 0-32-22 0-21 0 0 45 0 46-3 0-4 0 0-46 0-45-49 0-49 0 0 87 0 87 260 0 259 0 0-87z" horiz-adv-x="1063" />

<glyph glyph-name="thin-gift" unicode="&#xe814;" d="M286 846c-55-29-101-64-143-108-26-28-49-59-68-91-14-22-26-47-36-71-11-26-20-57-27-85-6-28-9-54-11-86-1-10-1-45 0-55 1-22 3-40 6-59 22-131 93-249 199-331 39-29 82-54 126-72 51-20 103-32 158-36 15-2 22-2 42-2 22 0 34 1 53 3 105 10 205 52 286 119 107 88 175 213 189 349 2 18 3 31 3 50 1 65-10 130-33 191-11 29-25 58-41 85-30 49-68 94-112 131-32 28-66 50-108 71l-1 1-1-3-2-3 6-3c3-2 10-5 14-7 55-31 105-71 147-120 63-74 105-166 119-262 2-15 3-29 4-46 1-10 1-47 0-56-3-49-10-91-25-135-44-135-144-247-274-308-59-28-122-44-186-49-25-1-53-1-77 0-46 4-93 13-136 29-93 32-175 90-236 167-65 80-103 177-112 280-1 16-2 23-2 44 0 21 1 27 2 43 9 114 56 220 133 305 7 8 23 24 31 31 36 33 75 61 116 82 5 3 9 5 9 5 0 0-3 6-3 6 0 0-4-2-9-4z m117-351c-6-1-11-4-15-9-5-4-8-10-9-16l-1-4 0-24c0-24 0-24 0-27 4-12 13-21 25-23 1 0 2 0 2 0 0 0 0-39 0-85 0-70 1-86 1-88 2-11 10-20 21-26 2-1 5-2 7-2l2-1 125 0c90 0 126 0 127 0 5 1 10 4 12 8 4 4 5 10 6 17 1 2 1 29 1 90 0 47 0 87 0 87 0 0 1 0 3 0 6 1 11 4 15 8 3 3 6 6 7 10 3 6 3 6 3 32 0 21 0 23-1 26-3 14-12 24-24 27-3 1-5 1-154 1-124 0-151 0-153-1z m122-51l0-45-60 0c-59 0-60 0-63 0-9 3-15 10-17 19-1 3-1 45 0 48 2 9 7 17 14 20 5 3 0 3 66 3l60 0 0-45z m55 0l0-45-24 0-24 0 0 45 0 45 24 0 24 0 0-45z m130 44c4-2 6-3 9-6 5-5 8-11 9-18 0-3 0-11 0-25 0-19 0-20-1-23-1-4-3-7-6-10-4-4-7-6-11-7-3 0-4 0-63 0l-59 0 0 45 0 45 60 0 60-1 2 0z m-185-194l0-97-44 0-43 0-3 1c-11 3-19 12-22 21 0 2 0 12 0 87l0 86 56 0 56 0 0-98z m55 0l0-97-24 0-24 0 0 97 0 98 24 0 24 0 0-98z m119 9c0-71 0-90 0-91-2-9-5-12-10-14l-2-1-50 0-49 0 0 97c0 53 0 97 0 97 0 0 11 1 56 1l56 0-1-89z m-490 99l0-4 53 0 52 0 0 4 0 3-52 0-53 0 0-3z m21-56l0-3 42 0 42 0 0 3 0 4-42 0-42 0 0-4z m28-55l0-4 28 0 28 0 0 4 0 3-28 0-28 0 0-3z" horiz-adv-x="1063" />

<glyph glyph-name="cancel" unicode="&#xe815;" d="M724 112q0-22-15-38l-76-76q-16-15-38-15t-38 15l-164 165-164-165q-16-15-38-15t-38 15l-76 76q-16 16-16 38t16 38l164 164-164 164q-16 16-16 38t16 38l76 76q16 16 38 16t38-16l164-164 164 164q16 16 38 16t38-16l76-76q15-15 15-38t-15-38l-164-164 164-164q15-15 15-38z" horiz-adv-x="785.7" />

<glyph glyph-name="menu" unicode="&#xf0c9;" d="M857 100v-71q0-15-10-25t-26-11h-785q-15 0-25 11t-11 25v71q0 15 11 25t25 11h785q15 0 26-11t10-25z m0 286v-72q0-14-10-25t-26-10h-785q-15 0-25 10t-11 25v72q0 14 11 25t25 10h785q15 0 26-10t10-25z m0 285v-71q0-14-10-25t-26-11h-785q-15 0-25 11t-11 25v71q0 15 11 26t25 10h785q15 0 26-10t10-26z" horiz-adv-x="857.1" />
</font>
</defs>
</svg>
